<svg height='125px' width='125px'  fill="#f6f4d2" xmlns="http://www.w3.org/2000/svg" xmlns:xlink="http://www.w3.org/1999/xlink" version="1.1" x="0px" y="0px" viewBox="0 0 100 100" enable-background="new 0 0 100 100" xml:space="preserve"><g><path fill="#f6f4d2" d="M52.6,40.4c-0.2,0.4-0.2,0.8-0.3,1.2c0,0.5,0,0.9,0.1,1.4c0.1,0.3,0.1,0.6,0.2,0.8c0.5,1.3,1.4,2.2,2.6,2.8   c0.7,0.3,1.4,0.5,2.1,0.5c0.9,0,1.8-0.3,2.5-0.7c0.4-0.2,0.8-0.5,1.1-0.9c0.3-0.3,0.5-0.7,0.8-1c0.1-0.1,0.1-0.2,0.2-0.3   c0,0,10-21.7,10-21.7c0,0,0.3-0.9,0.4-1.2c0.4-2.2-0.7-4.4-2.8-5.4c-0.7-0.3-1.4-0.5-2.1-0.5c-1.5,0-2.9,0.7-3.9,1.8   c-0.3,0.3-0.5,0.7-0.7,1.1c0,0,0,0,0,0l-10,21.7C52.7,40.2,52.6,40.3,52.6,40.4z"></path><path fill="#f6f4d2" d="M57.1,16.5c0.2,0.2,0.3,0.5,0.5,0.8c0.2,0.7,0.2,1.6,0,2.6c-0.1,0.5-0.2,0.9-0.4,1.4   c-0.1,0.2-0.1,0.3-0.2,0.5c-0.1,0.2-0.2,0.5-0.4,0.8c-1.4,2.7-4.8,7.2-13,7.5c0,0,0,0,0,0l-3.4,7.1c2.1,0.5,5.9,1.7,9.2,4.3   l11.1-24.2c0.2-0.4,0.3-0.8,0.4-1.2c0.4-2.2-0.7-4.4-2.8-5.4c-0.7-0.3-1.4-0.5-2.1-0.5c-1.5,0-2.9,0.7-3.9,1.8   c-0.3,0.3-0.5,0.7-0.7,1.1l0,0l-1.4,3.1h6.8L57.1,16.5z"></path><path fill="#f6f4d2" d="M43.9,16.2h3.3l1.9-4.1c0.2-0.4,0.3-0.8,0.4-1.2c0.4-2.2-0.7-4.4-2.8-5.4C46,5.2,45.3,5,44.5,5   c-1.5,0-2.9,0.7-3.9,1.8c-0.3,0.3-0.5,0.7-0.7,1.1l0,0l-3.8,8.3L43.9,16.2L43.9,16.2z"></path><path fill="#f6f4d2" d="M59.7,74.3c0-2.9-2.4-5.3-5.3-5.3c-2.9,0-5.3,2.4-5.3,5.3c0,2.9,2.4,5.3,5.3,5.3   C57.4,79.6,59.7,77.3,59.7,74.3z"></path><path fill="#f6f4d2" d="M79.3,34.9c0-0.6-0.3-1.7-0.3-1.7c-0.7-1.9-2.5-3.3-4.7-3.3c-0.5,0-0.9,0.1-1.3,0.2c-0.7,0.2-1.4,0.5-1.9,1   c-0.7,0.6-1.2,1.3-1.5,2.1c0,0,0,0,0,0l-6.2,13.5c-0.2,0.4-0.3,0.8-0.3,1.2c0,0.1,0,0.3,0,0.4c0.1,1.2,0.8,2.3,1.9,2.8   c0.5,0.3,1.1,0.3,1.7,0.3c0.7-0.1,1.5-0.4,2-0.9c0.3-0.2,0.5-0.5,0.7-0.9l3.2-7l2.3,1l0.2-0.5l-3.4,7.3l0,0   c-0.1,0.1-0.1,0.2-0.2,0.3c-0.1,0.2-0.3,0.5-0.5,0.7c-0.4,0.5-0.8,0.9-1.2,1.2c-0.9,0.7-2,1.1-3.1,1.1c-0.1,0-0.2,0-0.3,0   c-0.8,0-1.7-0.2-2.5-0.5c-1.2-0.5-2.1-1.4-2.6-2.4c-0.3-0.5-0.5-1-0.6-1.6c0-0.2-0.1-0.4-0.1-0.6c-0.4,0.2-0.8,0.4-1.2,0.5   c-0.7,0.2-1.4,0.3-2.2,0.3c-0.9,0-1.4-0.2-2.3-0.4c0.5,1.5,0.8,3.2,0.8,5.1v9.5h-2.5v-9.5c0-2.3-0.7-4.2-1.4-5.8   c-3.4-7.7-13.2-9-13.7-9.1l-1.7-0.2l5.5-11.5h0.8c0.2,0,0.4,0,0.6,0c0.5,0,1,0,1.4-0.1c4.8-0.5,7.4-2.7,8.8-4.6   c0.1-0.2,0.2-0.3,0.3-0.5c0.2-0.4,0.5-0.8,0.6-1.1c0.2-0.4,0.4-0.8,0.5-1.2c0.2-0.6,0.3-1.1,0.3-1.4H34.5c-2.5,0-4.6,1.3-5.9,3.3   c-0.3,0.5-0.5,1-0.7,1.5l-6.5,13.9l-0.3,0.7c-0.3,0.8-0.5,1.7-0.5,2.6c0,1.2,0.3,2.4,0.9,3.4l0.7,1l16,21.1V95h30v0h2.5V73.8   l7.9-16.2c0.1-0.2,0.2-0.4,0.3-0.6c0.2-0.5,0.3-1.1,0.3-1.7C79.3,55.2,79.3,34.9,79.3,34.9z M59.8,86.3v2.2h-4.2v3.9h-2.2v-3.9h-4   v-2.2h4v-4.5c-3.6-0.5-6.4-3.7-6.4-7.4c0-4.2,3.4-7.5,7.5-7.5c4.2,0,7.5,3.4,7.5,7.5c0,3.8-2.8,6.9-6.4,7.4v4.5H59.8z"></path></g></svg>